<?xml version="1.0" encoding="UTF-8"?>
<svg xmlns="http://www.w3.org/2000/svg" xmlns:xlink="http://www.w3.org/1999/xlink" viewBox="0 0 100 100" width="100px" height="100px">
<g id="surface48881987">
<path style=" stroke:none;fill-rule:nonzero;fill:rgb(100%,100%,100%);fill-opacity:1;" d="M 14.25 4 L 57.5625 47 L 69.4375 35.125 L 16.9375 4.8125 C 16.0625 4.304688 15.125 4.023438 14.25 4 Z M 10.625 6 C 10.234375 6.695312 10 7.515625 10 8.4375 L 10 92 C 10 92.671875 10.140625 93.273438 10.375 93.8125 L 54.6875 49.8125 Z M 73.0625 37.1875 L 60.375 49.8125 L 73.0625 62.375 L 88.5625 53.5 C 90.765625 52.226562 91.078125 50.609375 91.0625 49.75 C 91.039062 48.328125 90.140625 47 88.625 46.1875 C 87.304688 45.476562 77.5 39.765625 73.0625 37.1875 Z M 57.5625 52.625 L 13.875 95.9375 C 14.601562 95.898438 15.390625 95.742188 16.125 95.3125 C 17.835938 94.320312 52.4375 74.3125 52.4375 74.3125 L 69.5 64.5 Z M 57.5625 52.625 "/>
</g>
</svg>
