<?xml version="1.0" encoding="UTF-8"?>
<svg xmlns="http://www.w3.org/2000/svg" xmlns:xlink="http://www.w3.org/1999/xlink" viewBox="0 0 96 96" width="96px" height="96px">
<g id="surface48885644">
<path style=" stroke:none;fill-rule:nonzero;fill:rgb(100%,100%,100%);fill-opacity:1;" d="M 27 12 C 18.75 12 12 18.75 12 27 L 12 69 C 12 77.25 18.75 84 27 84 L 69 84 C 77.25 84 84 77.25 84 69 L 84 27 C 84 18.75 77.25 12 69 12 Z M 42.773438 23.589844 C 43.734375 23.65625 44.648438 24.179688 45.160156 25.078125 L 48 30 L 50.839844 25.078125 C 51.660156 23.636719 53.5 23.160156 54.941406 23.980469 C 56.382812 24.820312 56.859375 26.636719 56.039062 28.078125 L 41.078125 54 L 50.320312 54 L 53.761719 60 L 25 60 C 23.339844 60 22 58.660156 22 57 C 22 55.339844 23.339844 54 25 54 L 34.140625 54 L 44.539062 36 L 39.960938 28.078125 C 39.140625 26.636719 39.617188 24.820312 41.058594 23.980469 C 41.597656 23.671875 42.195312 23.550781 42.773438 23.589844 Z M 53.78125 40 L 61.859375 54 L 71 54 C 72.660156 54 74 55.339844 74 57 C 74 58.660156 72.660156 60 71 60 L 65.320312 60 L 68.160156 64.921875 C 68.980469 66.363281 68.5 68.179688 67.058594 69.019531 C 66.578125 69.28125 66.078125 69.421875 65.558594 69.421875 C 64.519531 69.421875 63.519531 68.882812 62.960938 67.921875 L 50.320312 46 Z M 28.378906 64 L 35.300781 64 L 33.039062 67.921875 C 32.480469 68.882812 31.480469 69.421875 30.441406 69.421875 C 29.921875 69.421875 29.421875 69.28125 28.941406 69.019531 C 27.5 68.179688 27.019531 66.363281 27.839844 64.921875 Z M 28.378906 64 "/>
</g>
</svg>
