<svg width="141" height="49" viewBox="0 0 141 49" fill="none" xmlns="http://www.w3.org/2000/svg">
<mask id="mask0" mask-type="alpha" maskUnits="userSpaceOnUse" x="0" y="8" width="139" height="30">
<path d="M0.72 37V31.096H2.52V14.896H0.72V8.992H15.912V14.896H12.6V31.096H15.84V27.784H23.004V37H0.72ZM34.8955 37.504C31.4875 37.504 28.8235 36.616 26.9035 34.84C24.9835 33.04 24.0235 30.424 24.0235 26.992C24.0235 23.56 24.9835 20.956 26.9035 19.18C28.8235 17.38 31.4875 16.48 34.8955 16.48C38.3515 16.48 41.0275 17.392 42.9235 19.216C44.8195 21.016 45.7675 23.608 45.7675 26.992C45.7675 30.424 44.8075 33.04 42.8875 34.84C40.9675 36.616 38.3035 37.504 34.8955 37.504ZM34.8955 31.096C35.5915 31.096 36.1075 30.916 36.4435 30.556C36.8035 30.172 36.9835 29.584 36.9835 28.792V25.192C36.9835 24.4 36.8035 23.824 36.4435 23.464C36.1075 23.08 35.5915 22.888 34.8955 22.888C34.1995 22.888 33.6715 23.08 33.3115 23.464C32.9755 23.824 32.8075 24.4 32.8075 25.192V28.792C32.8075 29.584 32.9755 30.172 33.3115 30.556C33.6715 30.916 34.1995 31.096 34.8955 31.096ZM70.6016 31.096V37H60.7376V34.192C59.0096 36.4 56.8496 37.504 54.2576 37.504C52.2656 37.504 50.7656 36.88 49.7576 35.632C48.7736 34.384 48.2816 32.668 48.2816 30.484V22.888H46.6976V16.984H56.5616V28.792C56.5616 29.584 56.7296 30.172 57.0656 30.556C57.4256 30.916 57.9536 31.096 58.6496 31.096C59.3456 31.096 59.8616 30.916 60.1976 30.556C60.5576 30.172 60.7376 29.584 60.7376 28.792V22.888H58.7936V16.984H69.0176V31.096H70.6016ZM78.6853 37.504C76.2373 37.504 74.3893 36.592 73.1413 34.768C71.9173 32.944 71.3053 30.352 71.3053 26.992C71.3053 23.632 71.9173 21.04 73.1413 19.216C74.3893 17.392 76.2373 16.48 78.6853 16.48C79.9093 16.48 80.9893 16.78 81.9253 17.38C82.8853 17.98 83.6653 18.664 84.2653 19.432V14.896H82.1413V8.992H92.5453V31.096H94.1293V37H84.2653V34.552C83.6653 35.32 82.8853 36.004 81.9253 36.604C80.9893 37.204 79.9093 37.504 78.6853 37.504ZM82.1773 31.096C82.8733 31.096 83.3893 30.916 83.7253 30.556C84.0853 30.172 84.2653 29.584 84.2653 28.792V25.192C84.2653 24.4 84.0853 23.824 83.7253 23.464C83.3893 23.08 82.8733 22.888 82.1773 22.888C81.4813 22.888 80.9533 23.08 80.5933 23.464C80.2573 23.824 80.0893 24.4 80.0893 25.192V28.792C80.0893 29.584 80.2573 30.172 80.5933 30.556C80.9533 30.916 81.4813 31.096 82.1773 31.096ZM106.017 37.504C102.609 37.504 99.9446 36.616 98.0246 34.84C96.1046 33.04 95.1446 30.424 95.1446 26.992C95.1446 23.56 96.1046 20.956 98.0246 19.18C99.9446 17.38 102.609 16.48 106.017 16.48C109.401 16.48 111.837 17.368 113.325 19.144C114.837 20.896 115.593 23.08 115.593 25.696V28.288H103.929V28.504C103.929 29.392 104.193 30.052 104.721 30.484C105.249 30.892 106.125 31.096 107.349 31.096C108.813 31.096 110.205 30.988 111.525 30.772C112.845 30.556 113.997 30.28 114.981 29.944V35.704C114.141 36.16 112.905 36.58 111.273 36.964C109.665 37.324 107.913 37.504 106.017 37.504ZM108.105 24.328V23.896C108.105 23.08 107.925 22.492 107.565 22.132C107.229 21.772 106.713 21.592 106.017 21.592C105.321 21.592 104.793 21.784 104.433 22.168C104.097 22.528 103.929 23.104 103.929 23.896V24.328H108.105ZM132.036 16.48C132.516 16.48 132.972 16.528 133.404 16.624C133.836 16.72 134.196 16.84 134.484 16.984V23.86C133.5 23.452 132.444 23.248 131.316 23.248C129.804 23.248 128.64 23.644 127.824 24.436C127.008 25.228 126.6 26.404 126.6 27.964V31.096H129.84V37H116.736V31.096H118.32V22.888H116.736V16.984H126.6V19.612C127.272 18.604 128.04 17.836 128.904 17.308C129.768 16.756 130.812 16.48 132.036 16.48ZM133.206 37V31.096H138.822V37H133.206Z" fill="#E5E5E5"/>
</mask>
<g mask="url(#mask0)">
<rect y="9" width="141" height="21" fill="#E5E5E5"/>
<rect y="29" width="141" height="8" fill="#F51B00"/>
</g>
</svg>
