<?xml version="1.0" encoding="UTF-8"?>
<svg xmlns="http://www.w3.org/2000/svg" xmlns:xlink="http://www.w3.org/1999/xlink" viewBox="0 0 96 96" width="96px" height="96px">
<g id="surface48764953">
<path style=" stroke:none;fill-rule:nonzero;fill:rgb(100%,100%,100%);fill-opacity:1;" d="M 20 66.035156 C 21.191406 66.035156 22.53125 66.035156 24 66.035156 L 24 38.082031 C 21.78125 40.085938 20.601562 42.507812 20 44.324219 Z M 42 36.210938 C 40.648438 35.578125 38.496094 34.78125 36 34.535156 L 36 66.035156 C 37.953125 66.035156 39.960938 66.035156 42 66.035156 Z M 28 66.035156 C 29.886719 66.035156 31.898438 66.035156 34 66.035156 L 34 34.480469 C 31.652344 34.539062 29.65625 34.941406 28 35.597656 Z M 8 47.90625 C 5.644531 49.699219 4 52.605469 4 55.984375 C 4 59.15625 5.589844 61.957031 8 63.792969 Z M 81.988281 44.03125 C 79.101562 44.03125 77.425781 45.074219 77.425781 45.074219 C 77.425781 45.074219 75.746094 28.097656 58.882812 28.097656 C 49.070312 28.097656 45.222656 33.507812 44 35.890625 L 44 66.035156 C 61.648438 66.035156 80.59375 66.035156 80.59375 66.035156 C 80.59375 66.035156 92.332031 65.847656 92.332031 55.128906 C 92.332031 46.878906 84.878906 44.03125 81.988281 44.03125 Z M 16 46.199219 C 15.210938 46.097656 14.316406 46.023438 13.316406 46.023438 C 12.871094 46.023438 12.4375 46.097656 12 46.171875 L 12 65.703125 C 12.847656 65.910156 13.722656 66.035156 14.621094 66.035156 C 14.925781 66.035156 15.40625 66.035156 16 66.035156 Z M 16 46.199219 "/>
</g>
</svg>
